<?xml version="1.0" encoding="utf-8"?>
<!-- Generator: Adobe Illustrator 27.2.0, SVG Export Plug-In . SVG Version: 6.00 Build 0)  -->
<svg version="1.1" id="Layer_1" xmlns="http://www.w3.org/2000/svg" xmlns:xlink="http://www.w3.org/1999/xlink" x="0px" y="0px"
	 viewBox="0 0 1728 1288.94" style="enable-background:new 0 0 1728 1288.94;" xml:space="preserve">
<style type="text/css">
	.st0{fill:#DD0079;}
	.st1{fill:#2B2D30;}
</style>
<g>
	<g>
		<g>
			<path class="st0" d="M598.87,810.3L286.94,498.37c-39.04-39.04-39.04-102.34,0-141.38L598.87,45.07
				c43.32-43.32,113.54-43.32,156.86,0l0,0c43.32,43.32,43.32,113.54,0,156.86L558.78,398.87c-15.91,15.91-15.91,41.71,0,57.63
				l196.94,196.94c43.32,43.32,43.32,113.54,0,156.86l0,0C712.41,853.61,642.18,853.61,598.87,810.3z"/>
			<path class="st0" d="M1358.46,315.8c-19.8,0-38.36,5.19-54.5,14.21l-164.65-164.65c4.99-12.68,7.82-26.45,7.82-40.9
				c0-61.79-50.09-111.88-111.88-111.88c-61.79,0-111.88,50.09-111.88,111.88c0,61.79,50.09,111.88,111.88,111.88
				c19.32,0,37.49-4.9,53.35-13.52l165.3,165.3c-4.66,12.31-7.33,25.6-7.33,39.55s2.67,27.24,7.33,39.55l-165.31,165.3
				c-15.86-8.62-34.03-13.52-53.35-13.52c-61.79,0-111.88,50.09-111.88,111.88c0,44,25.46,81.95,62.39,100.23l8.59,3.83
				c12.68,4.99,26.45,7.82,40.9,7.82c61.79,0,111.88-50.09,111.88-111.88c0-14.45-2.83-28.22-7.82-40.9l164.65-164.65
				c16.13,9.02,34.7,14.21,54.5,14.21c61.79,0,111.88-50.09,111.88-111.88C1470.34,365.89,1420.25,315.8,1358.46,315.8z"/>
		</g>
		<g>
			<circle class="st1" cx="956.22" cy="359.56" r="42.03"/>
			<circle class="st1" cx="1300.76" cy="100.27" r="53.63"/>
			<circle class="st1" cx="1439.18" cy="77.8" r="31.16"/>
		</g>
	</g>
	<g>
		<path class="st1" d="M819.68,1024l-67.62,75.34l65.18,72.7h-45.49l-42.44-47.31l-42.44,47.31h-32.49V1024h33.81v95.84l86-95.84
			H819.68z"/>
		<path class="st1" d="M1023.66,1024h162.04v55.94c0,25.93-5.38,46.87-16.14,62.85c-13.13,19.49-33.3,29.24-60.51,29.24h-85.39V1024
			z M1057.68,1136.09H1106c28.43,0,42.64-19.36,42.64-58.08v-20.2h-90.97V1136.09z"/>
		<path class="st1" d="M1356.17,1057.81h-116.35v23.25h116.35v33.91h-116.35v15.33c0,2.1,0.88,4.03,2.64,5.79
			c1.49,1.49,3.62,2.23,6.4,2.23h107.32v33.71h-107.32c-11.51,0-21.63-4.37-30.36-13.1c-8.33-8.33-12.49-18.61-12.49-30.86V1024
			h150.16V1057.81z"/>
		<path class="st1" d="M1389.17,1036.79c8.33-8.53,18.44-12.79,30.36-12.79h121.94v58.79c0,11.91-4.1,22-12.28,30.26
			c-4.26,4.33-9.04,7.55-14.32,9.65l24.67,49.34h-33.71l-24.77-46.5h-70.77v46.5h-33.81v-104.98
			C1376.48,1055.47,1380.71,1045.39,1389.17,1036.79z M1419.53,1057.81c-2.5,0-4.64,0.95-6.4,2.84c-1.9,1.83-2.84,3.96-2.84,6.4
			v24.57h89.04c2.23,0,4.23-0.85,5.99-2.54c1.56-1.56,2.34-3.65,2.34-6.29v-24.98H1419.53z"/>
		<path class="st1" d="M1718.33,1128.47c0,12.32-4.1,22.57-12.29,30.76c-8.53,8.53-18.55,12.79-30.05,12.79h-114.12v-33.81h110.06
			c2.77,0,5.18-1.02,7.21-3.05c1.83-1.89,2.91-3.76,3.25-5.58v-15.74h-120.62v-46.3c0-12.32,4.09-22.57,12.29-30.76
			c8.53-8.53,18.54-12.79,30.05-12.79h114.12v33.81h-114.12c-2.78,0-5.18,1.02-7.21,3.05c-2.23,2.3-3.35,4.54-3.35,6.7v14.52h124.68
			L1718.33,1128.47z"/>
	</g>
	<g>
		<g>
			<g>
				<path class="st0" d="M23.54,1230.58h31.63v6.07H43.11v39.26h-7.43v-39.26H23.54V1230.58z"/>
				<path class="st0" d="M97.88,1230.58c10.76,0,16.04,6.2,16.04,13.57c0,5.35-2.87,11.09-10.5,12.98l11.22,18.78h-8.87
					l-10.43-18.13h-5.67v18.13h-7.43v-45.33H97.88z M97.88,1236.64h-8.22v15.2h8.22c5.8,0,8.41-3.2,8.41-7.7
					C106.3,1239.58,103.69,1236.64,97.88,1236.64z"/>
				<path class="st0" d="M170.34,1266.64h-18.98l-3.26,9.26h-7.76l16.24-45.39h8.61l16.24,45.39h-7.83L170.34,1266.64z
					 M160.88,1239.51l-7.43,21.06h14.8L160.88,1239.51z"/>
				<path class="st0" d="M245.27,1230.51v45.39h-7.43l-22.37-33.85v33.85h-7.43v-45.39h7.43l22.37,33.78v-33.78H245.27z"/>
				<path class="st0" d="M289.55,1276.36c-9.07,0-16.04-4.96-16.04-12.98h7.96c0.33,3.72,2.93,6.72,8.09,6.72
					c5.22,0,8.15-2.8,8.15-6.65c0-10.96-24.06-3.85-24.06-20.54c0-7.96,6.33-12.91,15.59-12.91c8.67,0,14.8,4.57,15.46,12.33h-8.22
					c-0.26-3.07-2.93-5.87-7.63-6c-4.3-0.13-7.63,1.96-7.63,6.33c0,10.24,24,3.85,24,20.41
					C305.2,1269.84,299.65,1276.36,289.55,1276.36z"/>
				<path class="st0" d="M333.56,1230.58h26.67v6.07H341v13.37h15v6.06h-15v19.83h-7.43V1230.58z"/>
				<path class="st0" d="M407.39,1276.36c-12.78,0-23.15-9.59-23.15-23.22c0-13.56,10.37-23.15,23.15-23.15
					c12.91,0,23.15,9.59,23.15,23.15C430.54,1266.77,420.3,1276.36,407.39,1276.36z M407.39,1269.9c9,0,15.52-6.52,15.52-16.76
					c0-10.24-6.52-16.63-15.52-16.63s-15.52,6.39-15.52,16.63C391.86,1263.38,398.39,1269.9,407.39,1269.9z"/>
				<path class="st0" d="M473.06,1230.58c10.76,0,16.04,6.2,16.04,13.57c0,5.35-2.87,11.09-10.5,12.98l11.22,18.78h-8.87
					l-10.43-18.13h-5.67v18.13h-7.43v-45.33H473.06z M473.06,1236.64h-8.22v15.2h8.22c5.8,0,8.41-3.2,8.41-7.7
					C481.47,1239.58,478.86,1236.64,473.06,1236.64z"/>
				<path class="st0" d="M518.18,1230.58h8.02l15.91,35.54l15.85-35.54h7.96v45.33h-7.43v-31.04l-13.83,31.04h-5.15l-13.89-31.04
					v31.04h-7.43V1230.58z"/>
				<path class="st0" d="M595.26,1230.58h7.43v45.33h-7.43V1230.58z"/>
				<path class="st0" d="M669.28,1230.51v45.39h-7.43l-22.37-33.85v33.85h-7.43v-45.39h7.43l22.37,33.78v-33.78H669.28z"/>
				<path class="st0" d="M740.37,1243.62h-8.93c-2.41-4.56-6.72-6.85-12.13-6.85c-9,0-15.52,6.39-15.52,16.37
					c0,9.98,6.52,16.43,15.52,16.43c8.22,0,13.37-4.96,14.48-12.59h-17.02v-5.93h24.98v5.8c-1.37,10.5-10.24,19.43-22.43,19.43
					c-12.78,0-23.15-9.52-23.15-23.15c0-13.56,10.37-23.15,23.15-23.15C728.76,1229.99,736.91,1234.75,740.37,1243.62z"/>
				<path class="st0" d="M812.56,1230.58v39.33h15.33v6h-22.76v-45.33H812.56z"/>
				<path class="st0" d="M874.31,1276.36c-12.78,0-23.15-9.59-23.15-23.22c0-13.56,10.37-23.15,23.15-23.15
					c12.91,0,23.15,9.59,23.15,23.15C897.46,1266.77,887.23,1276.36,874.31,1276.36z M874.31,1269.9c9,0,15.52-6.52,15.52-16.76
					c0-10.24-6.52-16.63-15.52-16.63s-15.52,6.39-15.52,16.63C858.79,1263.38,865.31,1269.9,874.31,1269.9z"/>
				<path class="st0" d="M966.07,1243.62h-8.93c-2.41-4.56-6.72-6.85-12.13-6.85c-9,0-15.52,6.39-15.52,16.37
					c0,9.98,6.52,16.43,15.52,16.43c8.22,0,13.37-4.96,14.48-12.59h-17.02v-5.93h24.98v5.8c-1.37,10.5-10.24,19.43-22.43,19.43
					c-12.78,0-23.15-9.52-23.15-23.15c0-13.56,10.37-23.15,23.15-23.15C954.46,1229.99,962.61,1234.75,966.07,1243.62z"/>
				<path class="st0" d="M994.3,1230.58h7.43v45.33h-7.43V1230.58z"/>
				<path class="st0" d="M1051.76,1229.99c9.46,0,17.61,4.76,21.07,13.63h-8.93c-2.41-4.83-6.72-7.11-12.13-7.11
					c-9,0-15.52,6.39-15.52,16.63c0,10.24,6.52,16.7,15.52,16.7c5.41,0,9.72-2.28,12.13-7.11h8.93
					c-3.46,8.87-11.61,13.57-21.07,13.57c-12.78,0-23.15-9.52-23.15-23.15C1028.6,1239.58,1038.97,1229.99,1051.76,1229.99z"/>
				<path class="st0" d="M1137.58,1230.58h7.43v45.33h-7.43V1230.58z"/>
				<path class="st0" d="M1211.6,1230.51v45.39h-7.43l-22.37-33.85v33.85h-7.43v-45.39h7.43l22.37,33.78v-33.78H1211.6z"/>
				<path class="st0" d="M1238.59,1230.58h31.63v6.07h-12.06v39.26h-7.43v-39.26h-12.13V1230.58z"/>
				<path class="st0" d="M1317.96,1276.36c-12.78,0-23.15-9.59-23.15-23.22c0-13.56,10.37-23.15,23.15-23.15
					c12.91,0,23.15,9.59,23.15,23.15C1341.11,1266.77,1330.87,1276.36,1317.96,1276.36z M1317.96,1269.9c9,0,15.52-6.52,15.52-16.76
					c0-10.24-6.52-16.63-15.52-16.63s-15.52,6.39-15.52,16.63C1302.44,1263.38,1308.96,1269.9,1317.96,1269.9z"/>
				<path class="st0" d="M1404.49,1230.58h8.02l15.91,35.54l15.85-35.54h7.96v45.33h-7.43v-31.04l-13.83,31.04h-5.15l-13.89-31.04
					v31.04h-7.43V1230.58z"/>
				<path class="st0" d="M1508.9,1266.64h-18.98l-3.26,9.26h-7.76l16.24-45.39h8.61l16.24,45.39h-7.83L1508.9,1266.64z
					 M1499.45,1239.51l-7.43,21.06h14.8L1499.45,1239.51z"/>
				<path class="st0" d="M1588.33,1243.62h-8.93c-2.41-4.56-6.72-6.85-12.13-6.85c-9,0-15.52,6.39-15.52,16.37
					c0,9.98,6.52,16.43,15.52,16.43c8.22,0,13.37-4.96,14.48-12.59h-17.02v-5.93h24.98v5.8c-1.37,10.5-10.24,19.43-22.43,19.43
					c-12.78,0-23.15-9.52-23.15-23.15c0-13.56,10.37-23.15,23.15-23.15C1576.72,1229.99,1584.88,1234.75,1588.33,1243.62z"/>
				<path class="st0" d="M1616.57,1230.58h7.43v45.33h-7.43V1230.58z"/>
				<path class="st0" d="M1674.02,1229.99c9.46,0,17.61,4.76,21.07,13.63h-8.93c-2.41-4.83-6.72-7.11-12.13-7.11
					c-9,0-15.52,6.39-15.52,16.63c0,10.24,6.52,16.7,15.52,16.7c5.41,0,9.72-2.28,12.13-7.11h8.93
					c-3.46,8.87-11.61,13.57-21.07,13.57c-12.78,0-23.15-9.52-23.15-23.15C1650.87,1239.58,1661.24,1229.99,1674.02,1229.99z"/>
			</g>
		</g>
		<g>
			<g>
				<path class="st0" d="M43.48,1091.63l89.04-0.01c2.23,0,4.23-0.85,5.99-2.54c1.56-1.56,2.34-3.65,2.34-6.29v-24.98H52.72
					c-2.5,0-4.64,0.95-6.4,2.84c-1.9,1.83-2.84,3.96-2.84,6.4H9.67c0-3.7,0.43-7.26,1.3-10.66c1.84-7.22,5.64-13.75,11.39-19.6
					c8.33-8.53,18.44-12.79,30.36-12.79h121.94v58.79c0,11.91-4.1,22-12.29,30.26c-4.26,4.33-9.04,7.55-14.32,9.65l24.67,49.34
					h-33.71l-24.77-46.5H43.48v46.5H9.67v-80.41H43.48z"/>
				<path class="st0" d="M194.96,1024h33.81v148.03h-33.81V1024z"/>
				<path class="st0" d="M261.06,1036.79c8.6-8.53,18.55-12.79,29.85-12.79h108.33v33.81H290.91c-2.57,0-4.87,1.02-6.9,3.05
					c-2.17,2.1-3.25,4.33-3.25,6.7v13.5h118.49v33.91H280.76v57.06h-31.68v-104.47C249.08,1055.1,253.07,1044.85,261.06,1036.79z"/>
				<path class="st0" d="M578.14,1024v33.81h-61.32v114.22H483v-114.22h-63.46V1024H578.14z"/>
			</g>
			<g>
				<path class="st0" d="M848.65,1024.04h41.33l-62.05,74l62.05,74h-41.33l-62.05-74L848.65,1024.04z"/>
				<path class="st0" d="M1004.15,1098.04l-62.05,74h-41.33l62.05-74l-62.05-74h41.33L1004.15,1098.04z"/>
			</g>
		</g>
	</g>
</g>
</svg>
